<mxfile host="app.diagrams.net" modified="2022-05-26T02:30:11.596Z" agent="5.0 (Windows NT 10.0; Win64; x64) AppleWebKit/537.36 (KHTML, like Gecko) Chrome/102.0.5005.61 Safari/537.36" etag="Qp0jJ3qNdmcw3-CoKLOT" version="18.1.2" type="github">
  <diagram name="Page-1" id="b520641d-4fe3-3701-9064-5fc419738815">
    <mxGraphModel dx="2138" dy="547" grid="1" gridSize="10" guides="1" tooltips="1" connect="1" arrows="1" fold="1" page="1" pageScale="1" pageWidth="1100" pageHeight="850" background="none" math="0" shadow="0">
      <root>
        <mxCell id="0" />
        <mxCell id="1" parent="0" />
        <mxCell id="2debaab0fafb2da2-10" value="Object" style="html=1;rounded=0;shadow=0;comic=0;labelBackgroundColor=none;strokeWidth=2;fontFamily=Verdana;fontSize=12;align=center;shape=mxgraph.ios7ui.horLines;" parent="1" vertex="1">
          <mxGeometry x="162.5" y="734" width="135" height="50" as="geometry" />
        </mxCell>
        <mxCell id="21ea969265ad0168-6" value="run()" style="swimlane;html=1;fontStyle=0;childLayout=stackLayout;horizontal=1;startSize=26;fillColor=#e0e0e0;horizontalStack=0;resizeParent=1;resizeLast=0;collapsible=1;marginBottom=0;swimlaneFillColor=#ffffff;align=center;rounded=1;shadow=0;comic=0;labelBackgroundColor=none;strokeWidth=1;fontFamily=Verdana;fontSize=12" parent="1" vertex="1">
          <mxGeometry x="160" y="74" width="160" height="110" as="geometry" />
        </mxCell>
        <mxCell id="21ea969265ad0168-7" value="startLog()" style="text;html=1;strokeColor=none;fillColor=none;spacingLeft=4;spacingRight=4;whiteSpace=wrap;overflow=hidden;rotatable=0;points=[[0,0.5],[1,0.5]];portConstraint=eastwest;" parent="21ea969265ad0168-6" vertex="1">
          <mxGeometry y="26" width="160" height="26" as="geometry" />
        </mxCell>
        <mxCell id="21ea969265ad0168-9" value="while ready()" style="text;html=1;strokeColor=none;fillColor=none;spacingLeft=4;spacingRight=4;whiteSpace=wrap;overflow=hidden;rotatable=0;points=[[0,0.5],[1,0.5]];portConstraint=eastwest;" parent="21ea969265ad0168-6" vertex="1">
          <mxGeometry y="52" width="160" height="26" as="geometry" />
        </mxCell>
        <mxCell id="t5ip_q_PDymZQ2jQOUWd-23" value="self.crawl()" style="text;html=1;strokeColor=none;fillColor=none;spacingLeft=4;spacingRight=4;whiteSpace=wrap;overflow=hidden;rotatable=0;points=[[0,0.5],[1,0.5]];portConstraint=eastwest;" vertex="1" parent="21ea969265ad0168-6">
          <mxGeometry y="78" width="160" height="26" as="geometry" />
        </mxCell>
        <mxCell id="21ea969265ad0168-10" value="startLog()" style="swimlane;html=1;fontStyle=0;childLayout=stackLayout;horizontal=1;startSize=26;fillColor=#e0e0e0;horizontalStack=0;resizeParent=1;resizeLast=0;collapsible=1;marginBottom=0;swimlaneFillColor=#ffffff;align=center;rounded=1;shadow=0;comic=0;labelBackgroundColor=none;strokeWidth=1;fontFamily=Verdana;fontSize=12" parent="1" vertex="1">
          <mxGeometry x="560" y="74" width="160" height="130" as="geometry" />
        </mxCell>
        <mxCell id="21ea969265ad0168-11" value="Logger 생성" style="text;html=1;strokeColor=none;fillColor=none;spacingLeft=4;spacingRight=4;whiteSpace=wrap;overflow=hidden;rotatable=0;points=[[0,0.5],[1,0.5]];portConstraint=eastwest;" parent="21ea969265ad0168-10" vertex="1">
          <mxGeometry y="26" width="160" height="26" as="geometry" />
        </mxCell>
        <mxCell id="21ea969265ad0168-14" value="Function" style="swimlane;html=1;fontStyle=0;childLayout=stackLayout;horizontal=1;startSize=26;fillColor=#e0e0e0;horizontalStack=0;resizeParent=1;resizeLast=0;collapsible=1;marginBottom=0;swimlaneFillColor=#ffffff;align=center;rounded=1;shadow=0;comic=0;labelBackgroundColor=none;strokeWidth=1;fontFamily=Verdana;fontSize=12" parent="1" vertex="1">
          <mxGeometry x="150" y="560" width="160" height="110" as="geometry" />
        </mxCell>
        <mxCell id="21ea969265ad0168-15" value="Row 1" style="text;html=1;strokeColor=none;fillColor=none;spacingLeft=4;spacingRight=4;whiteSpace=wrap;overflow=hidden;rotatable=0;points=[[0,0.5],[1,0.5]];portConstraint=eastwest;" parent="21ea969265ad0168-14" vertex="1">
          <mxGeometry y="26" width="160" height="26" as="geometry" />
        </mxCell>
        <mxCell id="21ea969265ad0168-16" value="Row 2" style="text;html=1;strokeColor=none;fillColor=none;spacingLeft=4;spacingRight=4;whiteSpace=wrap;overflow=hidden;rotatable=0;points=[[0,0.5],[1,0.5]];portConstraint=eastwest;" parent="21ea969265ad0168-14" vertex="1">
          <mxGeometry y="52" width="160" height="26" as="geometry" />
        </mxCell>
        <mxCell id="21ea969265ad0168-17" value="Row 3" style="text;html=1;strokeColor=none;fillColor=none;spacingLeft=4;spacingRight=4;whiteSpace=wrap;overflow=hidden;rotatable=0;points=[[0,0.5],[1,0.5]];portConstraint=eastwest;" parent="21ea969265ad0168-14" vertex="1">
          <mxGeometry y="78" width="160" height="26" as="geometry" />
        </mxCell>
        <mxCell id="21ea969265ad0168-18" value="Function" style="swimlane;html=1;fontStyle=0;childLayout=stackLayout;horizontal=1;startSize=26;fillColor=#e0e0e0;horizontalStack=0;resizeParent=1;resizeLast=0;collapsible=1;marginBottom=0;swimlaneFillColor=#ffffff;align=center;rounded=1;shadow=0;comic=0;labelBackgroundColor=none;strokeWidth=1;fontFamily=Verdana;fontSize=12" parent="1" vertex="1">
          <mxGeometry x="120" y="870" width="160" height="140" as="geometry" />
        </mxCell>
        <mxCell id="21ea969265ad0168-19" value="Row 1" style="text;html=1;strokeColor=none;fillColor=none;spacingLeft=4;spacingRight=4;whiteSpace=wrap;overflow=hidden;rotatable=0;points=[[0,0.5],[1,0.5]];portConstraint=eastwest;" parent="21ea969265ad0168-18" vertex="1">
          <mxGeometry y="26" width="160" height="26" as="geometry" />
        </mxCell>
        <mxCell id="21ea969265ad0168-20" value="Row 2" style="text;html=1;strokeColor=none;fillColor=none;spacingLeft=4;spacingRight=4;whiteSpace=wrap;overflow=hidden;rotatable=0;points=[[0,0.5],[1,0.5]];portConstraint=eastwest;" parent="21ea969265ad0168-18" vertex="1">
          <mxGeometry y="52" width="160" height="26" as="geometry" />
        </mxCell>
        <mxCell id="21ea969265ad0168-51" value="Row 3" style="text;html=1;strokeColor=none;fillColor=none;spacingLeft=4;spacingRight=4;whiteSpace=wrap;overflow=hidden;rotatable=0;points=[[0,0.5],[1,0.5]];portConstraint=eastwest;" parent="21ea969265ad0168-18" vertex="1">
          <mxGeometry y="78" width="160" height="26" as="geometry" />
        </mxCell>
        <mxCell id="21ea969265ad0168-21" value="Row 4" style="text;html=1;strokeColor=none;fillColor=none;spacingLeft=4;spacingRight=4;whiteSpace=wrap;overflow=hidden;rotatable=0;points=[[0,0.5],[1,0.5]];portConstraint=eastwest;" parent="21ea969265ad0168-18" vertex="1">
          <mxGeometry y="104" width="160" height="26" as="geometry" />
        </mxCell>
        <mxCell id="21ea969265ad0168-22" value="ready()" style="swimlane;html=1;fontStyle=0;childLayout=stackLayout;horizontal=1;startSize=26;fillColor=#e0e0e0;horizontalStack=0;resizeParent=1;resizeLast=0;collapsible=1;marginBottom=0;swimlaneFillColor=#ffffff;align=center;rounded=1;shadow=0;comic=0;labelBackgroundColor=none;strokeWidth=1;fontFamily=Verdana;fontSize=12" parent="1" vertex="1">
          <mxGeometry x="560" y="266" width="160" height="84" as="geometry" />
        </mxCell>
        <mxCell id="21ea969265ad0168-23" value="getListStrdDataList()" style="text;html=1;strokeColor=none;fillColor=none;spacingLeft=4;spacingRight=4;whiteSpace=wrap;overflow=hidden;rotatable=0;points=[[0,0.5],[1,0.5]];portConstraint=eastwest;" parent="21ea969265ad0168-22" vertex="1">
          <mxGeometry y="26" width="160" height="26" as="geometry" />
        </mxCell>
        <mxCell id="21ea969265ad0168-24" value="self.dicStrd = return 결과" style="text;html=1;strokeColor=none;fillColor=none;spacingLeft=4;spacingRight=4;whiteSpace=wrap;overflow=hidden;rotatable=0;points=[[0,0.5],[1,0.5]];portConstraint=eastwest;" parent="21ea969265ad0168-22" vertex="1">
          <mxGeometry y="52" width="160" height="26" as="geometry" />
        </mxCell>
        <mxCell id="21ea969265ad0168-26" value="Function" style="swimlane;html=1;fontStyle=0;childLayout=stackLayout;horizontal=1;startSize=26;fillColor=#e0e0e0;horizontalStack=0;resizeParent=1;resizeLast=0;collapsible=1;marginBottom=0;swimlaneFillColor=#ffffff;align=center;rounded=1;shadow=0;comic=0;labelBackgroundColor=none;strokeWidth=1;fontFamily=Verdana;fontSize=12" parent="1" vertex="1">
          <mxGeometry x="520" y="870" width="160" height="110" as="geometry" />
        </mxCell>
        <mxCell id="21ea969265ad0168-27" value="Row 1" style="text;html=1;strokeColor=none;fillColor=none;spacingLeft=4;spacingRight=4;whiteSpace=wrap;overflow=hidden;rotatable=0;points=[[0,0.5],[1,0.5]];portConstraint=eastwest;" parent="21ea969265ad0168-26" vertex="1">
          <mxGeometry y="26" width="160" height="26" as="geometry" />
        </mxCell>
        <mxCell id="21ea969265ad0168-28" value="Row 2" style="text;html=1;strokeColor=none;fillColor=none;spacingLeft=4;spacingRight=4;whiteSpace=wrap;overflow=hidden;rotatable=0;points=[[0,0.5],[1,0.5]];portConstraint=eastwest;" parent="21ea969265ad0168-26" vertex="1">
          <mxGeometry y="52" width="160" height="26" as="geometry" />
        </mxCell>
        <mxCell id="21ea969265ad0168-29" value="Row 3" style="text;html=1;strokeColor=none;fillColor=none;spacingLeft=4;spacingRight=4;whiteSpace=wrap;overflow=hidden;rotatable=0;points=[[0,0.5],[1,0.5]];portConstraint=eastwest;" parent="21ea969265ad0168-26" vertex="1">
          <mxGeometry y="78" width="160" height="26" as="geometry" />
        </mxCell>
        <mxCell id="21ea969265ad0168-30" value="Object" style="html=1;rounded=0;shadow=0;comic=0;labelBackgroundColor=none;strokeWidth=2;fontFamily=Verdana;fontSize=12;align=center;shape=mxgraph.ios7ui.horLines;" parent="1" vertex="1">
          <mxGeometry x="340" y="850" width="135" height="50" as="geometry" />
        </mxCell>
        <mxCell id="21ea969265ad0168-31" style="edgeStyle=none;html=1;labelBackgroundColor=none;startFill=0;startSize=8;endFill=1;endSize=8;fontFamily=Verdana;fontSize=12;" parent="1" source="21ea969265ad0168-18" edge="1">
          <mxGeometry relative="1" as="geometry">
            <mxPoint x="200" y="790" as="targetPoint" />
          </mxGeometry>
        </mxCell>
        <mxCell id="21ea969265ad0168-32" style="edgeStyle=none;html=1;labelBackgroundColor=none;startFill=0;startSize=8;endFill=1;endSize=8;fontFamily=Verdana;fontSize=12;" parent="1" source="2debaab0fafb2da2-10" target="21ea969265ad0168-14" edge="1">
          <mxGeometry relative="1" as="geometry" />
        </mxCell>
        <mxCell id="21ea969265ad0168-33" style="edgeStyle=orthogonalEdgeStyle;html=1;labelBackgroundColor=none;startFill=0;startSize=8;endFill=1;endSize=8;fontFamily=Verdana;fontSize=12;exitX=1;exitY=0.25;entryX=1;entryY=0.5;" parent="1" source="21ea969265ad0168-18" target="21ea969265ad0168-17" edge="1">
          <mxGeometry relative="1" as="geometry">
            <Array as="points">
              <mxPoint x="280" y="770" />
              <mxPoint x="350" y="770" />
              <mxPoint x="350" y="690" />
              <mxPoint x="310" y="690" />
            </Array>
          </mxGeometry>
        </mxCell>
        <mxCell id="21ea969265ad0168-34" value="" style="edgeStyle=orthogonalEdgeStyle;html=1;labelBackgroundColor=none;startFill=0;startSize=8;endFill=1;endSize=8;fontFamily=Verdana;fontSize=12;" parent="1" source="21ea969265ad0168-30" target="21ea969265ad0168-27" edge="1">
          <mxGeometry x="-0.1342" y="32" relative="1" as="geometry">
            <mxPoint as="offset" />
          </mxGeometry>
        </mxCell>
        <mxCell id="21ea969265ad0168-35" style="edgeStyle=orthogonalEdgeStyle;html=1;labelBackgroundColor=none;startFill=0;startSize=8;endFill=1;endSize=8;fontFamily=Verdana;fontSize=12;" parent="1" source="21ea969265ad0168-14" target="21ea969265ad0168-30" edge="1">
          <mxGeometry relative="1" as="geometry">
            <Array as="points">
              <mxPoint x="230" y="720" />
              <mxPoint x="448" y="720" />
            </Array>
          </mxGeometry>
        </mxCell>
        <mxCell id="21ea969265ad0168-36" style="edgeStyle=orthogonalEdgeStyle;html=1;labelBackgroundColor=none;startFill=0;startSize=8;endFill=1;endSize=8;fontFamily=Verdana;fontSize=12;" parent="1" source="21ea969265ad0168-6" target="21ea969265ad0168-14" edge="1">
          <mxGeometry relative="1" as="geometry" />
        </mxCell>
        <mxCell id="21ea969265ad0168-42" style="edgeStyle=orthogonalEdgeStyle;html=1;exitX=1;exitY=0.5;entryX=0;entryY=0.5;labelBackgroundColor=none;startFill=0;startSize=8;endFill=1;endSize=8;fontFamily=Verdana;fontSize=12;exitDx=0;exitDy=0;entryDx=0;entryDy=0;" parent="1" source="21ea969265ad0168-9" target="21ea969265ad0168-23" edge="1">
          <mxGeometry relative="1" as="geometry">
            <Array as="points">
              <mxPoint x="440" y="139" />
              <mxPoint x="440" y="305" />
            </Array>
          </mxGeometry>
        </mxCell>
        <mxCell id="21ea969265ad0168-43" style="edgeStyle=orthogonalEdgeStyle;html=1;labelBackgroundColor=none;startFill=0;startSize=8;endFill=1;endSize=8;fontFamily=Verdana;fontSize=12;entryX=0;entryY=0.5;entryDx=0;entryDy=0;exitX=1;exitY=0.5;exitDx=0;exitDy=0;" parent="1" source="21ea969265ad0168-23" edge="1" target="t5ip_q_PDymZQ2jQOUWd-2">
          <mxGeometry relative="1" as="geometry">
            <mxPoint x="880" y="331" as="targetPoint" />
          </mxGeometry>
        </mxCell>
        <mxCell id="21ea969265ad0168-44" style="edgeStyle=orthogonalEdgeStyle;html=1;exitX=1;exitY=0.5;labelBackgroundColor=none;startFill=0;startSize=8;endFill=1;endSize=8;fontFamily=Verdana;fontSize=12;" parent="1" source="21ea969265ad0168-27" edge="1">
          <mxGeometry relative="1" as="geometry">
            <mxPoint x="840" y="909" as="targetPoint" />
          </mxGeometry>
        </mxCell>
        <mxCell id="21ea969265ad0168-45" style="edgeStyle=orthogonalEdgeStyle;html=1;labelBackgroundColor=none;startFill=0;startSize=8;endFill=1;endSize=8;fontFamily=Verdana;fontSize=12;entryX=1;entryY=0.5;" parent="1" target="21ea969265ad0168-28" edge="1">
          <mxGeometry relative="1" as="geometry">
            <mxPoint x="850" y="919" as="targetPoint" />
            <mxPoint x="840" y="935" as="sourcePoint" />
            <Array as="points">
              <mxPoint x="840" y="935" />
            </Array>
          </mxGeometry>
        </mxCell>
        <mxCell id="21ea969265ad0168-46" style="edgeStyle=orthogonalEdgeStyle;html=1;labelBackgroundColor=none;startFill=0;startSize=8;endFill=1;endSize=8;fontFamily=Verdana;fontSize=12;entryX=1;entryY=0.5;" parent="1" target="21ea969265ad0168-29" edge="1">
          <mxGeometry relative="1" as="geometry">
            <mxPoint x="690.1904761904761" y="945.0952380952381" as="targetPoint" />
            <mxPoint x="840" y="961" as="sourcePoint" />
            <Array as="points">
              <mxPoint x="760" y="961" />
              <mxPoint x="760" y="961" />
            </Array>
          </mxGeometry>
        </mxCell>
        <mxCell id="_NcchajXgoOq8OrkfjLP-1" value="" style="endArrow=classic;html=1;rounded=0;exitX=1;exitY=0.5;exitDx=0;exitDy=0;entryX=0;entryY=0.5;entryDx=0;entryDy=0;" parent="1" source="21ea969265ad0168-7" target="21ea969265ad0168-11" edge="1">
          <mxGeometry width="50" height="50" relative="1" as="geometry">
            <mxPoint x="500" y="310" as="sourcePoint" />
            <mxPoint x="550" y="260" as="targetPoint" />
          </mxGeometry>
        </mxCell>
        <mxCell id="_NcchajXgoOq8OrkfjLP-2" value="do()" style="swimlane;html=1;fontStyle=0;childLayout=stackLayout;horizontal=1;startSize=26;fillColor=#e0e0e0;horizontalStack=0;resizeParent=1;resizeLast=0;collapsible=1;marginBottom=0;swimlaneFillColor=#ffffff;align=center;rounded=1;shadow=0;comic=0;labelBackgroundColor=none;strokeWidth=1;fontFamily=Verdana;fontSize=12" parent="1" vertex="1">
          <mxGeometry x="-140" y="74" width="160" height="110" as="geometry" />
        </mxCell>
        <mxCell id="_NcchajXgoOq8OrkfjLP-3" value="JOB ID기준으로 작업 수행&amp;nbsp;&lt;br&gt;" style="text;html=1;strokeColor=none;fillColor=none;spacingLeft=4;spacingRight=4;whiteSpace=wrap;overflow=hidden;rotatable=0;points=[[0,0.5],[1,0.5]];portConstraint=eastwest;" parent="_NcchajXgoOq8OrkfjLP-2" vertex="1">
          <mxGeometry y="26" width="160" height="26" as="geometry" />
        </mxCell>
        <mxCell id="_NcchajXgoOq8OrkfjLP-4" value="멀티프로세싱 처리&amp;nbsp;" style="text;html=1;strokeColor=none;fillColor=none;spacingLeft=4;spacingRight=4;whiteSpace=wrap;overflow=hidden;rotatable=0;points=[[0,0.5],[1,0.5]];portConstraint=eastwest;" parent="_NcchajXgoOq8OrkfjLP-2" vertex="1">
          <mxGeometry y="52" width="160" height="26" as="geometry" />
        </mxCell>
        <mxCell id="_NcchajXgoOq8OrkfjLP-5" value="" style="endArrow=classic;html=1;rounded=0;exitX=1;exitY=0.5;exitDx=0;exitDy=0;entryX=0;entryY=0.5;entryDx=0;entryDy=0;" parent="1" source="_NcchajXgoOq8OrkfjLP-4" target="21ea969265ad0168-7" edge="1">
          <mxGeometry width="50" height="50" relative="1" as="geometry">
            <mxPoint x="140" y="310" as="sourcePoint" />
            <mxPoint x="190" y="260" as="targetPoint" />
          </mxGeometry>
        </mxCell>
        <mxCell id="t5ip_q_PDymZQ2jQOUWd-1" value="getListStrdDataList()" style="swimlane;html=1;fontStyle=0;childLayout=stackLayout;horizontal=1;startSize=26;fillColor=#e0e0e0;horizontalStack=0;resizeParent=1;resizeLast=0;collapsible=1;marginBottom=0;swimlaneFillColor=#ffffff;align=center;rounded=1;shadow=0;comic=0;labelBackgroundColor=none;strokeWidth=1;fontFamily=Verdana;fontSize=12" vertex="1" parent="1">
          <mxGeometry x="782" y="268" width="210" height="102" as="geometry" />
        </mxCell>
        <mxCell id="t5ip_q_PDymZQ2jQOUWd-2" value="서비스파싱.인자로드함수 실행" style="text;html=1;strokeColor=none;fillColor=none;spacingLeft=4;spacingRight=4;whiteSpace=wrap;overflow=hidden;rotatable=0;points=[[0,0.5],[1,0.5]];portConstraint=eastwest;" vertex="1" parent="t5ip_q_PDymZQ2jQOUWd-1">
          <mxGeometry y="26" width="210" height="22" as="geometry" />
        </mxCell>
        <mxCell id="t5ip_q_PDymZQ2jQOUWd-3" value="self.Strd = rslt2" style="text;html=1;strokeColor=none;fillColor=none;spacingLeft=4;spacingRight=4;whiteSpace=wrap;overflow=hidden;rotatable=0;points=[[0,0.5],[1,0.5]];portConstraint=eastwest;" vertex="1" parent="t5ip_q_PDymZQ2jQOUWd-1">
          <mxGeometry y="48" width="210" height="26" as="geometry" />
        </mxCell>
        <mxCell id="t5ip_q_PDymZQ2jQOUWd-12" value="return getDicFromListTable(self.Strd)" style="text;html=1;strokeColor=none;fillColor=none;spacingLeft=4;spacingRight=4;whiteSpace=wrap;overflow=hidden;rotatable=0;points=[[0,0.5],[1,0.5]];portConstraint=eastwest;" vertex="1" parent="t5ip_q_PDymZQ2jQOUWd-1">
          <mxGeometry y="74" width="210" height="26" as="geometry" />
        </mxCell>
        <mxCell id="t5ip_q_PDymZQ2jQOUWd-5" value="Server인자로드함수" style="swimlane;html=1;fontStyle=0;childLayout=stackLayout;horizontal=1;startSize=26;fillColor=#e0e0e0;horizontalStack=0;resizeParent=1;resizeLast=0;collapsible=1;marginBottom=0;swimlaneFillColor=#ffffff;align=center;rounded=1;shadow=0;comic=0;labelBackgroundColor=none;strokeWidth=1;fontFamily=Verdana;fontSize=12" vertex="1" parent="1">
          <mxGeometry x="1060" y="266" width="210" height="110" as="geometry" />
        </mxCell>
        <mxCell id="t5ip_q_PDymZQ2jQOUWd-6" value="서비스파싱.인자로드함수 실행" style="text;html=1;strokeColor=none;fillColor=none;spacingLeft=4;spacingRight=4;whiteSpace=wrap;overflow=hidden;rotatable=0;points=[[0,0.5],[1,0.5]];portConstraint=eastwest;" vertex="1" parent="t5ip_q_PDymZQ2jQOUWd-5">
          <mxGeometry y="26" width="210" height="22" as="geometry" />
        </mxCell>
        <mxCell id="t5ip_q_PDymZQ2jQOUWd-7" value="retrun (rslt2,rslt)" style="text;html=1;strokeColor=none;fillColor=none;spacingLeft=4;spacingRight=4;whiteSpace=wrap;overflow=hidden;rotatable=0;points=[[0,0.5],[1,0.5]];portConstraint=eastwest;" vertex="1" parent="t5ip_q_PDymZQ2jQOUWd-5">
          <mxGeometry y="48" width="210" height="26" as="geometry" />
        </mxCell>
        <mxCell id="t5ip_q_PDymZQ2jQOUWd-10" value="" style="endArrow=classic;html=1;rounded=0;exitX=1;exitY=0.5;exitDx=0;exitDy=0;entryX=0;entryY=0.5;entryDx=0;entryDy=0;" edge="1" parent="1" source="t5ip_q_PDymZQ2jQOUWd-2" target="t5ip_q_PDymZQ2jQOUWd-6">
          <mxGeometry width="50" height="50" relative="1" as="geometry">
            <mxPoint x="1120" y="330" as="sourcePoint" />
            <mxPoint x="1130" y="240" as="targetPoint" />
          </mxGeometry>
        </mxCell>
        <mxCell id="t5ip_q_PDymZQ2jQOUWd-13" value="return 받은 테이블 객체를 Dict 형태로 반환" style="text;html=1;strokeColor=none;fillColor=none;align=center;verticalAlign=middle;whiteSpace=wrap;rounded=0;" vertex="1" parent="1">
          <mxGeometry x="768" y="236" width="238" height="30" as="geometry" />
        </mxCell>
        <mxCell id="t5ip_q_PDymZQ2jQOUWd-14" value="" style="endArrow=classic;html=1;rounded=0;exitX=0;exitY=0.5;exitDx=0;exitDy=0;entryX=1;entryY=0.5;entryDx=0;entryDy=0;" edge="1" parent="1" source="t5ip_q_PDymZQ2jQOUWd-7" target="t5ip_q_PDymZQ2jQOUWd-3">
          <mxGeometry width="50" height="50" relative="1" as="geometry">
            <mxPoint x="1120" y="330" as="sourcePoint" />
            <mxPoint x="1170" y="280" as="targetPoint" />
          </mxGeometry>
        </mxCell>
        <mxCell id="t5ip_q_PDymZQ2jQOUWd-15" value="" style="endArrow=classic;html=1;rounded=0;exitX=0;exitY=0.5;exitDx=0;exitDy=0;entryX=1;entryY=0.5;entryDx=0;entryDy=0;" edge="1" parent="1" source="t5ip_q_PDymZQ2jQOUWd-12" target="21ea969265ad0168-24">
          <mxGeometry width="50" height="50" relative="1" as="geometry">
            <mxPoint x="610" y="230" as="sourcePoint" />
            <mxPoint x="660" y="180" as="targetPoint" />
          </mxGeometry>
        </mxCell>
        <mxCell id="t5ip_q_PDymZQ2jQOUWd-17" value="crawl()" style="swimlane;html=1;fontStyle=0;childLayout=stackLayout;horizontal=1;startSize=26;fillColor=#e0e0e0;horizontalStack=0;resizeParent=1;resizeLast=0;collapsible=1;marginBottom=0;swimlaneFillColor=#ffffff;align=center;rounded=1;shadow=0;comic=0;labelBackgroundColor=none;strokeWidth=1;fontFamily=Verdana;fontSize=12" vertex="1" parent="1">
          <mxGeometry x="460" y="400" width="260" height="210" as="geometry" />
        </mxCell>
        <mxCell id="t5ip_q_PDymZQ2jQOUWd-18" value="for sd in dicStrd" style="text;html=1;strokeColor=none;fillColor=none;spacingLeft=4;spacingRight=4;whiteSpace=wrap;overflow=hidden;rotatable=0;points=[[0,0.5],[1,0.5]];portConstraint=eastwest;" vertex="1" parent="t5ip_q_PDymZQ2jQOUWd-17">
          <mxGeometry y="26" width="260" height="26" as="geometry" />
        </mxCell>
        <mxCell id="t5ip_q_PDymZQ2jQOUWd-19" value="url = self.makeURL()" style="text;html=1;strokeColor=none;fillColor=none;spacingLeft=4;spacingRight=4;whiteSpace=wrap;overflow=hidden;rotatable=0;points=[[0,0.5],[1,0.5]];portConstraint=eastwest;" vertex="1" parent="t5ip_q_PDymZQ2jQOUWd-17">
          <mxGeometry y="52" width="260" height="28" as="geometry" />
        </mxCell>
        <mxCell id="t5ip_q_PDymZQ2jQOUWd-33" value="page = self.request(url)" style="text;html=1;strokeColor=none;fillColor=none;spacingLeft=4;spacingRight=4;whiteSpace=wrap;overflow=hidden;rotatable=0;points=[[0,0.5],[1,0.5]];portConstraint=eastwest;" vertex="1" parent="t5ip_q_PDymZQ2jQOUWd-17">
          <mxGeometry y="80" width="260" height="28" as="geometry" />
        </mxCell>
        <mxCell id="t5ip_q_PDymZQ2jQOUWd-40" value="cPage = self.convertPage(page)" style="text;html=1;strokeColor=none;fillColor=none;spacingLeft=4;spacingRight=4;whiteSpace=wrap;overflow=hidden;rotatable=0;points=[[0,0.5],[1,0.5]];portConstraint=eastwest;" vertex="1" parent="t5ip_q_PDymZQ2jQOUWd-17">
          <mxGeometry y="108" width="260" height="28" as="geometry" />
        </mxCell>
        <mxCell id="t5ip_q_PDymZQ2jQOUWd-47" value="self.selfSaveDB(cPage,sd,url,session = ss)" style="text;html=1;strokeColor=none;fillColor=none;spacingLeft=4;spacingRight=4;whiteSpace=wrap;overflow=hidden;rotatable=0;points=[[0,0.5],[1,0.5]];portConstraint=eastwest;" vertex="1" parent="t5ip_q_PDymZQ2jQOUWd-17">
          <mxGeometry y="136" width="260" height="28" as="geometry" />
        </mxCell>
        <mxCell id="t5ip_q_PDymZQ2jQOUWd-22" style="edgeStyle=orthogonalEdgeStyle;html=1;exitX=1;exitY=0.5;entryX=0;entryY=0.5;labelBackgroundColor=none;startFill=0;startSize=8;endFill=1;endSize=8;fontFamily=Verdana;fontSize=12;exitDx=0;exitDy=0;entryDx=0;entryDy=0;" edge="1" parent="1" source="t5ip_q_PDymZQ2jQOUWd-23" target="t5ip_q_PDymZQ2jQOUWd-18">
          <mxGeometry relative="1" as="geometry">
            <Array as="points">
              <mxPoint x="410" y="165" />
              <mxPoint x="410" y="439" />
            </Array>
            <mxPoint x="330" y="149" as="sourcePoint" />
            <mxPoint x="570" y="315" as="targetPoint" />
          </mxGeometry>
        </mxCell>
        <mxCell id="t5ip_q_PDymZQ2jQOUWd-26" value="makeURL()" style="swimlane;html=1;fontStyle=0;childLayout=stackLayout;horizontal=1;startSize=26;fillColor=#e0e0e0;horizontalStack=0;resizeParent=1;resizeLast=0;collapsible=1;marginBottom=0;swimlaneFillColor=#ffffff;align=center;rounded=1;shadow=0;comic=0;labelBackgroundColor=none;strokeWidth=1;fontFamily=Verdana;fontSize=12" vertex="1" parent="1">
          <mxGeometry x="782" y="400" width="218" height="110" as="geometry" />
        </mxCell>
        <mxCell id="t5ip_q_PDymZQ2jQOUWd-27" value="dicParam에 URL 생성인자 세팅" style="text;html=1;strokeColor=none;fillColor=none;spacingLeft=4;spacingRight=4;whiteSpace=wrap;overflow=hidden;rotatable=0;points=[[0,0.5],[1,0.5]];portConstraint=eastwest;" vertex="1" parent="t5ip_q_PDymZQ2jQOUWd-26">
          <mxGeometry y="26" width="218" height="26" as="geometry" />
        </mxCell>
        <mxCell id="t5ip_q_PDymZQ2jQOUWd-30" value="url 생성" style="text;html=1;strokeColor=none;fillColor=none;spacingLeft=4;spacingRight=4;whiteSpace=wrap;overflow=hidden;rotatable=0;points=[[0,0.5],[1,0.5]];portConstraint=eastwest;" vertex="1" parent="t5ip_q_PDymZQ2jQOUWd-26">
          <mxGeometry y="52" width="218" height="26" as="geometry" />
        </mxCell>
        <mxCell id="t5ip_q_PDymZQ2jQOUWd-31" value="return URL" style="text;html=1;strokeColor=none;fillColor=none;spacingLeft=4;spacingRight=4;whiteSpace=wrap;overflow=hidden;rotatable=0;points=[[0,0.5],[1,0.5]];portConstraint=eastwest;" vertex="1" parent="t5ip_q_PDymZQ2jQOUWd-26">
          <mxGeometry y="78" width="218" height="26" as="geometry" />
        </mxCell>
        <mxCell id="t5ip_q_PDymZQ2jQOUWd-29" value="" style="endArrow=classic;html=1;rounded=0;exitX=1;exitY=0.5;exitDx=0;exitDy=0;entryX=0;entryY=0.5;entryDx=0;entryDy=0;" edge="1" parent="1" source="t5ip_q_PDymZQ2jQOUWd-19" target="t5ip_q_PDymZQ2jQOUWd-27">
          <mxGeometry width="50" height="50" relative="1" as="geometry">
            <mxPoint x="810" y="650" as="sourcePoint" />
            <mxPoint x="860" y="600" as="targetPoint" />
          </mxGeometry>
        </mxCell>
        <mxCell id="t5ip_q_PDymZQ2jQOUWd-32" value="" style="endArrow=classic;html=1;rounded=0;exitX=0;exitY=0.5;exitDx=0;exitDy=0;entryX=1;entryY=0.5;entryDx=0;entryDy=0;" edge="1" parent="1" source="t5ip_q_PDymZQ2jQOUWd-31" target="t5ip_q_PDymZQ2jQOUWd-19">
          <mxGeometry width="50" height="50" relative="1" as="geometry">
            <mxPoint x="810" y="550" as="sourcePoint" />
            <mxPoint x="860" y="500" as="targetPoint" />
          </mxGeometry>
        </mxCell>
        <mxCell id="t5ip_q_PDymZQ2jQOUWd-34" value="request()" style="swimlane;html=1;fontStyle=0;childLayout=stackLayout;horizontal=1;startSize=26;fillColor=#e0e0e0;horizontalStack=0;resizeParent=1;resizeLast=0;collapsible=1;marginBottom=0;swimlaneFillColor=#ffffff;align=center;rounded=1;shadow=0;comic=0;labelBackgroundColor=none;strokeWidth=1;fontFamily=Verdana;fontSize=12" vertex="1" parent="1">
          <mxGeometry x="780" y="520" width="218" height="80" as="geometry" />
        </mxCell>
        <mxCell id="t5ip_q_PDymZQ2jQOUWd-35" value="page = get_html(url)" style="text;html=1;strokeColor=none;fillColor=none;spacingLeft=4;spacingRight=4;whiteSpace=wrap;overflow=hidden;rotatable=0;points=[[0,0.5],[1,0.5]];portConstraint=eastwest;" vertex="1" parent="t5ip_q_PDymZQ2jQOUWd-34">
          <mxGeometry y="26" width="218" height="26" as="geometry" />
        </mxCell>
        <mxCell id="t5ip_q_PDymZQ2jQOUWd-36" value="return page" style="text;html=1;strokeColor=none;fillColor=none;spacingLeft=4;spacingRight=4;whiteSpace=wrap;overflow=hidden;rotatable=0;points=[[0,0.5],[1,0.5]];portConstraint=eastwest;" vertex="1" parent="t5ip_q_PDymZQ2jQOUWd-34">
          <mxGeometry y="52" width="218" height="26" as="geometry" />
        </mxCell>
        <mxCell id="t5ip_q_PDymZQ2jQOUWd-38" value="" style="endArrow=classic;html=1;rounded=0;exitX=1;exitY=0.5;exitDx=0;exitDy=0;entryX=0;entryY=0.5;entryDx=0;entryDy=0;" edge="1" parent="1" source="t5ip_q_PDymZQ2jQOUWd-33" target="t5ip_q_PDymZQ2jQOUWd-35">
          <mxGeometry width="50" height="50" relative="1" as="geometry">
            <mxPoint x="870" y="550" as="sourcePoint" />
            <mxPoint x="920" y="500" as="targetPoint" />
          </mxGeometry>
        </mxCell>
        <mxCell id="t5ip_q_PDymZQ2jQOUWd-39" value="" style="endArrow=classic;html=1;rounded=0;exitX=0;exitY=0.5;exitDx=0;exitDy=0;entryX=1;entryY=0.5;entryDx=0;entryDy=0;" edge="1" parent="1" source="t5ip_q_PDymZQ2jQOUWd-36" target="t5ip_q_PDymZQ2jQOUWd-33">
          <mxGeometry width="50" height="50" relative="1" as="geometry">
            <mxPoint x="870" y="550" as="sourcePoint" />
            <mxPoint x="920" y="500" as="targetPoint" />
          </mxGeometry>
        </mxCell>
        <mxCell id="t5ip_q_PDymZQ2jQOUWd-41" value="&lt;span style=&quot;font-family: Helvetica; text-align: left;&quot;&gt;convertPage()&lt;/span&gt;" style="swimlane;html=1;fontStyle=0;childLayout=stackLayout;horizontal=1;startSize=26;fillColor=#e0e0e0;horizontalStack=0;resizeParent=1;resizeLast=0;collapsible=1;marginBottom=0;swimlaneFillColor=#ffffff;align=center;rounded=1;shadow=0;comic=0;labelBackgroundColor=none;strokeWidth=1;fontFamily=Verdana;fontSize=12" vertex="1" parent="1">
          <mxGeometry x="780" y="610" width="218" height="60" as="geometry" />
        </mxCell>
        <mxCell id="t5ip_q_PDymZQ2jQOUWd-42" value="return BeautifulSoup(page)" style="text;html=1;strokeColor=none;fillColor=none;spacingLeft=4;spacingRight=4;whiteSpace=wrap;overflow=hidden;rotatable=0;points=[[0,0.5],[1,0.5]];portConstraint=eastwest;" vertex="1" parent="t5ip_q_PDymZQ2jQOUWd-41">
          <mxGeometry y="26" width="218" height="26" as="geometry" />
        </mxCell>
        <mxCell id="t5ip_q_PDymZQ2jQOUWd-44" value="" style="endArrow=classic;html=1;rounded=0;exitX=1;exitY=0.5;exitDx=0;exitDy=0;entryX=0;entryY=0.5;entryDx=0;entryDy=0;" edge="1" parent="1" source="t5ip_q_PDymZQ2jQOUWd-40" target="t5ip_q_PDymZQ2jQOUWd-42">
          <mxGeometry width="50" height="50" relative="1" as="geometry">
            <mxPoint x="870" y="650" as="sourcePoint" />
            <mxPoint x="920" y="600" as="targetPoint" />
          </mxGeometry>
        </mxCell>
        <mxCell id="t5ip_q_PDymZQ2jQOUWd-45" value="" style="endArrow=classic;html=1;rounded=0;entryX=1;entryY=0.5;entryDx=0;entryDy=0;exitX=0;exitY=0.5;exitDx=0;exitDy=0;" edge="1" parent="1" source="t5ip_q_PDymZQ2jQOUWd-42" target="t5ip_q_PDymZQ2jQOUWd-40">
          <mxGeometry width="50" height="50" relative="1" as="geometry">
            <mxPoint x="780" y="675" as="sourcePoint" />
            <mxPoint x="920" y="600" as="targetPoint" />
          </mxGeometry>
        </mxCell>
        <mxCell id="t5ip_q_PDymZQ2jQOUWd-46" value="page를 객체화 된 형태로 반환한다." style="text;html=1;strokeColor=none;fillColor=none;align=center;verticalAlign=middle;whiteSpace=wrap;rounded=0;" vertex="1" parent="1">
          <mxGeometry x="1006" y="610" width="194" height="30" as="geometry" />
        </mxCell>
        <mxCell id="t5ip_q_PDymZQ2jQOUWd-48" value="&lt;span style=&quot;font-family: Helvetica; text-align: left;&quot;&gt;selfSaveDB()&lt;/span&gt;" style="swimlane;html=1;fontStyle=0;childLayout=stackLayout;horizontal=1;startSize=26;fillColor=#e0e0e0;horizontalStack=0;resizeParent=1;resizeLast=0;collapsible=1;marginBottom=0;swimlaneFillColor=#ffffff;align=center;rounded=1;shadow=0;comic=0;labelBackgroundColor=none;strokeWidth=1;fontFamily=Verdana;fontSize=12" vertex="1" parent="1">
          <mxGeometry x="780" y="680" width="218" height="60" as="geometry" />
        </mxCell>
        <mxCell id="t5ip_q_PDymZQ2jQOUWd-49" value="self.reCurParse()" style="text;html=1;strokeColor=none;fillColor=none;spacingLeft=4;spacingRight=4;whiteSpace=wrap;overflow=hidden;rotatable=0;points=[[0,0.5],[1,0.5]];portConstraint=eastwest;" vertex="1" parent="t5ip_q_PDymZQ2jQOUWd-48">
          <mxGeometry y="26" width="218" height="26" as="geometry" />
        </mxCell>
        <mxCell id="t5ip_q_PDymZQ2jQOUWd-50" value="" style="endArrow=classic;html=1;rounded=0;exitX=1;exitY=0.5;exitDx=0;exitDy=0;entryX=0;entryY=0.5;entryDx=0;entryDy=0;" edge="1" parent="1" source="t5ip_q_PDymZQ2jQOUWd-47" target="t5ip_q_PDymZQ2jQOUWd-49">
          <mxGeometry width="50" height="50" relative="1" as="geometry">
            <mxPoint x="580" y="650" as="sourcePoint" />
            <mxPoint x="630" y="600" as="targetPoint" />
          </mxGeometry>
        </mxCell>
        <mxCell id="t5ip_q_PDymZQ2jQOUWd-51" value="&lt;div style=&quot;text-align: left;&quot;&gt;&lt;span style=&quot;background-color: initial;&quot;&gt;&lt;font face=&quot;Helvetica&quot;&gt;reCurParse()&lt;/font&gt;&lt;/span&gt;&lt;/div&gt;" style="swimlane;html=1;fontStyle=0;childLayout=stackLayout;horizontal=1;startSize=26;fillColor=#e0e0e0;horizontalStack=0;resizeParent=1;resizeLast=0;collapsible=1;marginBottom=0;swimlaneFillColor=#ffffff;align=center;rounded=1;shadow=0;comic=0;labelBackgroundColor=none;strokeWidth=1;fontFamily=Verdana;fontSize=12" vertex="1" parent="1">
          <mxGeometry x="1042" y="682" width="288" height="168" as="geometry" />
        </mxCell>
        <mxCell id="t5ip_q_PDymZQ2jQOUWd-52" value="for cdex in cdexlist" style="text;html=1;strokeColor=none;fillColor=none;spacingLeft=4;spacingRight=4;whiteSpace=wrap;overflow=hidden;rotatable=0;points=[[0,0.5],[1,0.5]];portConstraint=eastwest;" vertex="1" parent="t5ip_q_PDymZQ2jQOUWd-51">
          <mxGeometry y="26" width="288" height="24" as="geometry" />
        </mxCell>
        <mxCell id="t5ip_q_PDymZQ2jQOUWd-55" value="&amp;nbsp; &amp;nbsp; 코드실행에 등록된 기준으로 1차 반복 파싱" style="text;html=1;strokeColor=none;fillColor=none;spacingLeft=4;spacingRight=4;whiteSpace=wrap;overflow=hidden;rotatable=0;points=[[0,0.5],[1,0.5]];portConstraint=eastwest;" vertex="1" parent="t5ip_q_PDymZQ2jQOUWd-51">
          <mxGeometry y="50" width="288" height="30" as="geometry" />
        </mxCell>
        <mxCell id="t5ip_q_PDymZQ2jQOUWd-62" value="&amp;nbsp; &amp;nbsp; for p in pasiPage" style="text;html=1;strokeColor=none;fillColor=none;spacingLeft=4;spacingRight=4;whiteSpace=wrap;overflow=hidden;rotatable=0;points=[[0,0.5],[1,0.5]];portConstraint=eastwest;" vertex="1" parent="t5ip_q_PDymZQ2jQOUWd-51">
          <mxGeometry y="80" width="288" height="30" as="geometry" />
        </mxCell>
        <mxCell id="t5ip_q_PDymZQ2jQOUWd-61" value="&amp;nbsp; &amp;nbsp; &amp;nbsp; &amp;nbsp; self.getTableListByOutMapping(self.svcId, self.pasiId, p, strd,cdex[0].seq)" style="text;html=1;strokeColor=none;fillColor=none;spacingLeft=4;spacingRight=4;whiteSpace=wrap;overflow=hidden;rotatable=0;points=[[0,0.5],[1,0.5]];portConstraint=eastwest;" vertex="1" parent="t5ip_q_PDymZQ2jQOUWd-51">
          <mxGeometry y="110" width="288" height="40" as="geometry" />
        </mxCell>
        <mxCell id="t5ip_q_PDymZQ2jQOUWd-53" value="" style="endArrow=classic;html=1;rounded=0;entryX=0;entryY=0.5;entryDx=0;entryDy=0;exitX=1;exitY=0.5;exitDx=0;exitDy=0;" edge="1" parent="1" source="t5ip_q_PDymZQ2jQOUWd-49" target="t5ip_q_PDymZQ2jQOUWd-52">
          <mxGeometry width="50" height="50" relative="1" as="geometry">
            <mxPoint x="930" y="750" as="sourcePoint" />
            <mxPoint x="980" y="700" as="targetPoint" />
          </mxGeometry>
        </mxCell>
        <mxCell id="t5ip_q_PDymZQ2jQOUWd-56" value="" style="shape=image;verticalLabelPosition=bottom;labelBackgroundColor=default;verticalAlign=top;aspect=fixed;imageAspect=0;image=data:image/png,iVBORw0KGgoAAAANSUhEUgAAAIYAAADECAYAAABa6Vn2AAAZcElEQVR4nO2dTWgb6f3Hv9MNJYWlOKSHJXU6yjqkOvgQEpqlsKWjxN1qMD3FDQT2sCAt2Nn0UDKD91BoDz3EjHzzxqZo6JZdGv7BuWwr5P5JrKE55KVsWro6iBBHM2zW67IxNqV0DV369DAja16eZzQja+SR/HxAJBnNy6PMb57nmef7fH+PQAgh4HB8fG2/C8BJJzwwOFQORd1xe3sbf/vb35IsCydhstksXnnllUj7CmF9jI2NDWiaBgA4efIkvv/97/emhJx94e9//zs++eQT/Pe//8Xbb7+NbDbL3JcZGB988AF2dnbw9ttvJ1ZQzv7x0Ucf4bPPPsPMzAz1e2pgfPDBB3j99ddx4sSJxAvI2T82Nzfx+9//Hj/72c8C3wU6nxsbG9jZ2eFBcQA4evQostkste8YCAxN03jzcYD40Y9+hN/97neB7YHAOHTI/6JiQBUECIGPCsNQIQgydMt/Fgu6LED2fEHZZumQqed2zk85J3VfWUegCNQy2L9FNXy7GqrneoYqQFCN3T+HnW9/+9vY2dnxbPMEhmma+N73vuc7TIJGCEjgo0Haa4nEAqq0c9cU5iH5shncv1qAGNizicYKsNJosq9vqHZg5UoASsg5AVnZ6+8aMCYmJvDgwQPPtkBgnDx5knKo60mzdMiBp9m/+wKKK8DK8h3Kk9wPLOhyDiUAKOV8tYYLSaMG/GQ/i5oCRkdHYZqmZ1v8kc9mAyueDSsoZlxVrqHaT2A+j/xKEZmQqthQGU1DrhS7WLtYOmQhg+J4zbnRJqaWM4zmBrB02XVtV7NYymEvxRh0ejAknkfZJCCaZN+UXMmu7qtVVImJcj1H6S/YSBqtiQpvSlaKmfD+SKt50loNnYhCtdXc2M3i7leWjuki7PITArMMFBecMyk1hBRj6OmtVuLclGqh1eI7NyVCf8Td0bPW6kA+C+8Lc+tcEfs7rf4D5bNbiYkFLJVh13iCgEwRKF/dc89pOCAuarUa+etf/+reRMxyngCgfhRFIUCelE0SpKYE9s9Td2ztDgKlxvy+N9SIApDELzNgfPHFF+S3v/2tZ1vHGkMsVBlPKYHG6qU5TYpSc+9fw3gx0+4I+p5o+8UgR3+6Q55+ak1AOb/9cTqk1CLLlP07dLKHmMjqas+RNBCiRdw5zr5uFNSivFYbKjLFcdRI1bOvoQrIqZOu/srBIZnAEAuomoCcESC4NufLpqv/0Q9KyAmUOkKpeW+2pMEsy8gIgn9H1MjBCwrAJ6IZhoGRkRGcPn16P8vE6TMvXrzAH//4R7z11lu72/gMLg4VHhgcKjwwOFR4YHCo8MDgUOGBwaHCA4NDJXJgbGxswDRN6qcj64+h3t4GsA19/nHHORrW7VtQH4VvC/u3MX8L+jrr7E2oVzqX4aATKTA2Njbw/PlzHD58OPA5dOhQYPZPgOdbwPERYP0ZGplXKbOt+sj6FuqNp7gTFjjn7zoaSRPq+UUI7s98yIwwB2N+Eeoj/7Huc95tazDrjyGftwPZPm7Pv7AnRBoS39nZwejoKNPF9PTpU/qBj+5CePeJ848njoD1EKX3TqG2eoGpYTTNTeB4lJLFZRv6r59i6vpJLP/6MSZunIkQpN6yGvOLEObzINcYs+gf3UXlBzPQzjWhIvx3Yv0x5De3MLt6yd7n2mWszT+GdS5KuZIl2T7GuQsgq5dRnnwN5uoMzHeOQrk+AxL2n4UmKhWgdK8J9xObeW8zsGfp3fYTSfvef171/E003rqEwrkzqP4CmHY/uRGRrl1Gee0vjKZqG/r7wOS5KGdqQn1zC7Oe/4sRTGSeYiEFtUYfOp9baOAIRABN82jH/zRjfgWlyddQXluB+ugEtNUZECeo/NhBxv6+fc5FCOefYXJ1Blrr+sfOoLr6KirnFyHE6nOMYOIC0HhO+Wr9GZbHXnXd6CfItZoSzzU2MXflL8h+GHxAxONHUf90O3JpkiJB2X0b+pWbKDbsf5VaU68rT4BJelVszC8it/YazBtnIK4D8pu3oH94CYVjeyuJdG0G5BrtGzvw4gr6YU3deOaI619hTckmlu9vo3BxxLt59AhwbwvACPWofpFgjTGCwo0ZkOunnCc7D2Uybz/htPZ5/THmKqdQa7X7x86g+qHdF2A9zfGakl6xjbW1UxGbCxZHMXvjMqbu3kxNZ9NP5Brjq6++6uoCxr1NZC8DePQM9cxZ9o7HzqC6Stl2w/6rPzjEi5dALkYogKcDzEa57mpmmNi14PKFy6gy9qibUZ/2ERRu5KGeD9aK3lpnf4gUGK+88goePHjAfPsIs9NL15we97ELqO7pKeuScxdAVi/s4QRPkDvfDizl+gz7dxx7FVN4BgsnIr5VnID24RbkNxfRcALTuv8UOH5mD+XtDZEC4/Dhw5CkgzKT6QS01ROuv8fpg7TeKs5AO+c+D+v8cGrKViBs4455Elej1IQJMzBD4uLFSxGqehvp2t47rN0iXnwD2ffDRl7ZGPM30fjB/o9hAPs5GXhoGUHhxqWujpSuzezdD9wjBqbG4PQXHhgcKv0JjEjqKkWw2h0xZCuiUZRYTnwi9TH+9a9/4c9//jNeeukl6vff/e53kclk2CfYVVcfo5F5FQXqTmFvAJ0VTTZNqOefYXL1AiQ0oZ5f8brRGKOwboz5RVR+kAfedR/bGtV0nx+OMPYUUx9ewtjNRUdQ20Px94lIgfHixQucPn0ax47Ru/qGYdADI7a6ug19/hkmrp2BiCbUK1u4GqqANrHw3iZK2ce4GlmRPJhqaVwiNyVf+1oXrU436uraVsT6YRv6lRXU37mM2thDZCLMk6BxUNTSuKROXd1lfQv1sSPtJ63xEJnzi5Bvb6Mtoc+genEE0rUZmJm/RJpEE+RgqKVxSZW6GkrWUV0BACPQVr2JS8WLl9DtMgoHQS2NS4KBYaurhUd3oeKC3UbPAxojIKzbt9oKqUubECqAcj3Pvsz6Y8hvPvSkf8q/czmGLuOopVRZPipHMXvjDaxduQn1+GB2Nv0kPvIZVV0NV0ubUN+nbF5/DPnXwNLqjKdzZ92+Bfn2G6j6n94AB0ctjUtkEe3hw4cYGaH/Bx0+fJh57H6oq01zE2C+PR9MtTQ27vQ6tFRL6eAZUWY+JtRETZ99TPK5GwSuT355q2dXNpf/jygPuz16i5RLjHKnCFqqpQER0U5Au8HorHpk694jXnwD2Su3oI/GV2xttXSGMaCXbgYkMPaT4VBL48JFNA4VHhgcKv0JDEuHqlsALOgqPXUzJ11EDoznz58zTc0dZ5A3G8CYCFh30MhORHz1s6DLnfNsWrocWGaCto0Tj0iB8fz5c2xsbMQ3NbuWfSjlBAiZIkrFTLTEqsYCiislVPgN3hciBcZXX321a2r2f0ZHR9k1hqSBEBNlpQyTEJjlvJMtODwpq6XLECqTIIRgsuJfjMZLs7HC/I7TPX3oYzTRwJitrjbGMRkSEa1lKqaxtJugVdIIljBt1zzBpYlQKQGligH3SkyZIg+WPeMe7WKNfDabTfL5558zR85qNVrWdpOU8/Tk9L1KJm8npi+Tct6bON4s53ki+Rh0lWS+e5xlJGqK03zUoCjO4jK03NwxE8kbqoBcvQxTK6CwVEY9R1ubjdMtiTclRqWO7AkARgX1bMgcjMAyVCbKeQU1/4oHEgBLx1xJQa21FppYQNWcwvI0fxXuFYmbmiXNyegvaqhGGB82VBlrV6sIzUUvFlD1z8oRC6g62jkPjr2TuKm5e0QUqt0sRcHpBSk0NduL7xUD2yOuPcLpCalTVyWNoKs1a1yIhWrsLDkcL1xE41DhgcGhwgODQ6UPfYxt6Fc+xtiNsNyeLSje0hYeX4mNMb+IHG0hdoZvxbp9CwvHvQlYjPlbWLvsn7bnK/Oju5A/PYvq8Y/tPzvOPh98+mBqHsHYhSOIZi9iGZttH2uQoyhHTve4jTt3N1G/sA2cY9xYv0fl/BP7GswcosNrmO6fqfm9h7YRaJ+eNmP+Jopjp6C8F2IKYk0sfnQXy59GucrwGKYjNyVdm5qvA+qnRwC8Cq1TUISlXsy+hqvxS4BW81R/5zLIxRHg2lnoVxYh3GPcME+t4dRIAFbeuwkBQP6dkJSUPqRrl1G+8v/Q109QajXHMH0j4m9gGqbPJFJrJNzHaEJ9/wiu3jiD5vwt6Osdqn1m6kXb3hh8MjZRfHMxOBjm6Y+c8PlcHeuk869dQxQAOwn9FmZXZxxnmpOw5S3H9nj8Y8iRao72tSYuAAvPAfh/t2OYbjvgXEYoT/k3MXdlE1MfXmIbpllN4x5IODDafhDxWvCHheHpKK5voY6gzY+dCpoCxeNq4+6njKDwiyOQzy8i5/pOfH43Rsm9DKphOnUjn1SOnUF1T6ZjMPsPxvwtrHXab9deGddmObiG6fQEBrV/sRh4dVWuz0BDF2mgw2qMy8Fjqa/ClFdmNoNtmE7c1ByZWKmdu0wDHTUvx6O7mMtcBlkdCWyXb2+HvFkNj2H64KztzqwxQH2N3nuN0RnagFt03PnK9gZtbff0NCVJE9P8HKtj2yVpNkwfnMBIJek1THMRjUOFBwaHCg8MDpXIgcEyNJumiZ2dnR4Vp+0mC3zkoDWg5VwLfBiOZprZ2VBpfhSfodpQbZtk60/62YfKhB0pMEzTxIsXL7pcqdl7s8P/AyRoPh+J/alBoe6fR9mk7E8zNMHCneUV1NdCzAWWDlkQIAgZFFdKyAkCBEGGvsY+pP0zh8uEHbnGCDM1s7Ggyzmg1r7B2CfHmKFmUBxXMF7MsINTLKAaCMoqCmPh5x5GE3ayfQxjAcXxGtoPsISrZWD5DuM/jmlTzNFndUUrBFRBwFzWBNE0aMREdo7d3LRrDae2cIq6UsxAyHlLMdQmbLeRtbemZkJITSH5shnYFt/UXCMK5ZiawjBN58tdplA0STmvkPaVakTJl4nZ+h203xPnV6TUhN1nU7PNSsOb+N1aqyMf5mFt7efukFlrqFP2kTRaf4SAtDyt3hO6agL3x920iSgsZTG3+90cskuUcwHDb8J2R0nPawxSIwrcT0eNKMiTKA9dv56imhKtPJ3x1zbur8okD993ZpnknZptoGuM7kzNEjRSA3LtvgJqDMOy7wnMFFfs9Ey0JzDm0wqAWWPkGJ0X6qsw9ZU5wpMvFlD12yvFAqq0mi0lRNJKRkdHQ03N4Wqs/Qra0TIoaSCRvYlx9nWh1Bivsj4M1e6sEjGwXdYtVKmRPVwm7EiBcejQIbz++utJlyV5SjkIlBoiXza9N1vSMFsRIAiBHWFW/UExnCbsgzMfg8OENh+DayUcKjwwOFR4YHCopDIwgq+ABlTKq6Kly/SBqgOkgiZFpLeS7e1t3Lt3D1//+tep34uimFAerhAsHdONWRDSmpzvBE+nsQFHBVUMDX3LHjWARA6Ms2fPhpqa2YFhQHWJYEqNIHwowUCltIISDBSijDnEwNJlZBqzIESDoQqQ10zGmISjgnZQVYeZZFdqji27G1CFOWRNAjM751UnV4rIuEczxQKWsnOupoStawy1CpoU7vHxJNRVv5JqlvN0hZKiJ5jlvHO8o3IySxC87jCqoEmxL+qqX0kVx8YDiqv9RVBPEAtV+hA2UykVgkteDLsKmhAplN0t6LL/xlUw6e5UemZa1aDk7WUv7H/7hqF5KuquSDYwpEkopZzrFc/AQhGYmmC/NxhqBo1Z3/wKM4s5yutqHIZVBU2KSG8lL7/8Mu7fv49vfvOb1O9ZZueW7K4KAlp6lFIj4XnCE2e4VNCkiBQY3/rWt/CTn/yky0tElN1be2sm1mQBQs691VYq9xZPw6mCJgVXVzlcXeVEhwcGhwoPDA4VHhgcKv1ZqTkmSZiPvRJ9+xjvtWiDay3LYVD6957TPYucPk1gkEh2pWYA8UzNQCLmY0N1VFVnwKwG5Kg3zln50bN4MGEqsGKh6jVej48NzUBYsis1d2FqTsJ8bK3VobhXApauoowGKIrNLvHMxwZUoYJJt67jV4MHjBSZmpMzH4tj446E7i7XZMigloW1OoK1lnOz3c2ULelXMOkfJHP0mx5PKekb6VFXnRHSdrXtVOu78yfcDjYL+nQDs7u1xSwajtCVL5sgNV82DUmz53e0AmkuCzPsjhkLKI6XMbU87a3dnJttl9EVyEM4cpo+dbXX5uPWEe7+QJgoZumQc0BNK6CwNIXlDGt+qD+Qh4vUqav0/gOBvxLw7ufUJpJm36jWn24sHXKnBt/SIWcamG3VAGIB1RqQYx5nQVedTqzrTcjS54DZwVZk02NqbpGQ+ZiFWKi2+wE02V3Swv2udbvf4e7XDErWnDD6sFJzPHUVQMLm4x4zXoZZLUA0VMhr9rVzKKM8p8KQBrfvkcKVmpGQ+Zh93siBSKNeREawxfy8AsjLWTtQYEAVVGBAO6Zcdudw2Z0THR4YHCo8MDhU+hAY0UzELeKkgY62bzzFlGPTh5WaRYxNZSOu1AzEmZwraQSBVFyWDnnBe/1ClaAAWyZfGHONW1BlNEcQIxokn+/WLl7nNxhDFVCZDOokrO1pJFKN0Vqp+cc//jH1Y5om/UDHBZYrBsWnXkCtMTJF6vJWQLcDT15zUg05trBnF4p58yXNRLYyGDVUsqZmSQOpKVDKZSj+MQgmrfkVUUYz4yWZj6qYhv8kE+X6HGPqgAV9DrAVflcT1nZiYyK7jIUBkOIT7mMYUOeyuFooYLIxHckDGivbr+MV6ehfBSIqplEQMTEFUAVi6w6WHTnf0qexPGXaZZ/EbnnEsfHwSUgpIeHAkKA5N9Qrm1PoIqlrO4j8flRfHyWyYhqNsCZp3FGOxYkpoOgEoSS1y3Miy4iqdJGe19WA+Zj+0SRQgsg9xc8XRLEV005YWKsrmOzUgRQLqJIlYJpRg6Wc9ARGC6q66psOGCeIulFM2YWDLmewPHWV+dZUd2oDS9dhOG9ENaUOd+sxHiHJ/n6TnpWaAbhnZnmXvabl16K8SrbIO4pnT8pUQs6lvCk1giorKsQJTOEOLEgQC2NYEATk7IPQEoCtO8vAWFKrpfYQdxYVVkadvmKWST6wBkmcFQLiZN+JmaknAuFZd0xSVnp7vV5Ay6iTvsAYeExSztMDuaYglamaaIHBV2ruOSIK1Sr1G0kjAzM3I32dT04q4IHBoZI6dZWTDvqwUnM8dbX3sjttX5apuc1BzyWe7ErNXamrwVSLhCGMUXUVs4w8pRz2bHJXFsAE77Cly9TfaqiD42WN/FbSMjXTYNkKbHUVUNeyACag9Xg6v6Ey/CZKrafXiYWlYwFLVFFO0kysqTosKf1mpNSpq4nI7pKG2UbGNWejgdnQIXE7FUOpi4XajYVlZCdEcNk9lBjqauuIhGR373nb2onHidbCkejL9VzMqt9ApT6FCZHL7r0jSdndvoAngQvrnLB0yHPZ7nOJO8lTuOzeK5KS3dsXgEY5n1l2dVUN1W5mepFL/KDI7r3Os8Wk17L7LvQaw7MGibMo8J5yidfXYOGAyO57W6k5DgnL7j2V42lImByvoAlAGnDZPWUrNdsJUeTWf+gueZTNqu+Gslz0BlSZkaVtpW1A9rAXU7MPaRKQdQtSgVY+C3caU7ia/rhI4XyMIYAlr3PZ/YDDkte57M4ZeHhgcKikWHYPOy7MqLy3NNAcm0iBsb29jT/84Q/405/+RP00Go2Qo+Oamh2cFZXpckWc1M7x0kDDSZFk7P69s6QfOANDRR0kdTVyYJw9e5Zpat7Y2KAf2KWp2dJlCJVJECc7MPs4AwvFFZTmdFiumoG1cC43NUcnRabm9o1tr6hsP+27Kyq7q31LhyzYecrNqWVk5DuYqFKGuV3n56bm6KRIdm9X+f4A2s3quztqaUDNFDHurBMvFqp2cIQ+ydzUHIeExzEkaI5tS9Sq4e/whhpIDk9DqRFokj2q6EYsVEEYx+yamkkBkgXIGRVje0iz2GysAIyVDjym5sw09IkqCn51tdIEUj5VJz2vq3FWVHZDEd2msdTej5uauyI9gdENlg55GljyBc8Sptt9Bm5q7oqEV2reH5qNFSAsi3UsuKk5ZSKaScp5hXTUnCgm6HxkBzQ3NRPCTc19gpuaOVS4qZkzxPDA4FA5AOqqDfeuxiNyYDx48ACGYVA/vTQ179IzdRXcu9oFkU3No6OjkCSJ+umtqTk5dbUvdPCuDp26euhQFy8waVFXuXc1NgdGXeXe1Xikx9Qcy7vqeDZcN1QsVDvoH9y7Gof0vK4mpa62L8C9qzFIT2B0QxR1dRfuXY1D+kzNPYA5t9OZreWvNXq34pCEyfEGmgDEwhgqTvDlMLvbjNrqaron6QCpMzXHRCygumQ3Je5QCCzc24J7V6PjVtS4utobuHeVQ4V7VzlDCw8MDhVPYJw+fRr379/fr7Jw9olPPvkk8ALhCYyRkRE8e/asr4Xi7D+PHj1CNuudPR1oSr7xjW8M1JgFZ+/84x//CC5f5n91+fLLL8mvfvWrvr0qcfaX3/zmN+Tzzz8PbA/UGIcPH8YPf/hDfPTRR/0KWM4+8eDBA4yMjFBzxFPfSiRJwqlTp/Dzn/8c//znPxMvIKe/fPnll/jlL38JAPjpT39K3UcghDC9wACwtLSEJ0+e4KWXXsLLL7/c+1Jy+sa///1v/Oc//8F3vvMdTE9Phy6L2jEwOAcTPsDFocIDg0OFBwaHyv8AlFmLmwROFrcAAAAASUVORK5CYII=;" vertex="1" parent="1">
          <mxGeometry x="1370" y="586" width="134" height="196" as="geometry" />
        </mxCell>
        <mxCell id="t5ip_q_PDymZQ2jQOUWd-58" value="" style="shape=image;verticalLabelPosition=bottom;labelBackgroundColor=default;verticalAlign=top;aspect=fixed;imageAspect=0;image=data:image/png,iVBORw0KGgoAAAANSUhEUgAAAIkAAACVCAYAAABsMNkpAAAQ3klEQVR4nO2dT2gj5RvHv/OzYF0X7WEPPSwmSw+bQ3QLguzBxQlUTei1Cx68TQ49LOJhhmVR/HMsk2MPAWfwoMceLYlQnFkUdl1YWqRgPJTOLCu7ogcPugaMvL/DTJL5877zL5lk0r4fGErfeZN5mz55/32f53kFQggBhxPB/+bdAE7x4UbCiYUbCSeWpaib/X4f7XYbtm3j4sWLWFqKrM5ZIJ49e4Z///0Xb7zxBt57773oyoTBvXv3yCeffEKePXvGqsI5A/z666/kww8/JE+ePGHWEQgJr2663S6ef/551Gq1vAyZUzBarRbef/99rK6uhu6F5iRPnz6FbdvcQM4ZsixjZ2eHfjPYtdy5c4cMBoMcOzhOUfn999/Jl19+GSqnrm6ee+45f4GtoyEIEKiXAtNfGXqDUbehww49zanf0L13TCiCAMUMVDUV3/NMRYCgmKOfnMm4dOkSfvrpp1C5z0iePn2KSqUSfnVJQocQkOBlyMwH1jUrXL8joRSqeYpeF+j2TtmtNxXHyGotAC3UXOPcZ7+CkxFBEEJlPiPp9Xp47bXXZtYgpxepoQUArVqgN/EgqmGDIyo2Z9jS88JLL70UKku0mWYqjOGj1sreGltHQyijWTXcf7qFrb0yY0gCbL3heXYDI3tq1TBJMzjxJDISUaUMNTHDTbdZjp6/DIcwVRwWQOoMhyQRKiEY3bJ1bDcBzXKea2lAc9d9J9lARDM4UyD1trx3kmifHAP1Cq74arj/bJpRERVi+A0ZE2LPxLUkoa0BzbJTXm4C2q3QO3FyYqJ99pLUAZEmbIGoghA1UGhCEfz7NNRnqQTOTuDwJycP4nuSwDfdWWDU6N/6iF6B2kNQ3t+53MksBf/chLUM50yT+J6E+k1nkaauFxkGbSgKYiooN6swSMdX11QE1JRNz/yGM00KIuu2UBMofYds+P/xogpLa6AcWsvLMAg3kLyYv5Gk6qmmNA/ipII7HXFi4UbCiYUbCScWbiScWLiRcGLhRsKJhRsJJ5bZGImtQ9FtADZ0he4K4OB4pCX1amO6MDC81Gy9EfJ2MxWP28G4JvSGZ6vfVBxfl+HPc0aizTTLsvDLL79geXmZev/ll1/G+vo6+w1Oe8CaBNg6epUNsPfCXBeBULkJpXFCqV+HZnUghd3dKNg42OvieMsGRMYLbB2NchPd4e9Cy3mGVmW8pwlF2McmUSG6oqRv3zi4Y7ygJDKSP//8Ezdu3MCFCxeo902TIa+ZiscxqTX6AFvNhFrNFDGVMppVGXKzDGXN46vipSShQ9vONRXs0Ww0hP/vctwqFt9Q8h1uRBWEWNBkDRYhsLQ6ZIPhVwJEqMhsVTgeZwjbqVggqgqVWKjsRDhO+5y+x0NRt1lO7Yknqha04x3KcLZYzGBOcooe1lACcNqrYjPqS0X1ZSUgxIBcXaM4UXdHjkjs+YszhHVGY5LrFOV+u0XVO1zZ0Ld7uD167m30tp33qmtWpCcenRI2toAoH+9FIEcjGYZW1NBy/U9qLdfTPUH4g2+SaZ/gmFKH6VZJ88pnhoV4J64lSO0Kdkb3dlBp0zz8k3Pa68ZXKjg5Gon7jTVkd4gxIMuu03PaMbokoTPpuM4ICwl1Dr56bi8jqk5PNPyZGBsnx3J077kAJDYSkjEhkrl/jMoVAOY+jitXIir65yPlZhetGsOrLYsHHKMnYU0zqMtrhic/HRt6o4y9rVsznaDnQaLVzeXLl3H37t1wZJ/L1atXma8VVdeLrKSiEzsfydkDLumS1FSciS4phcobuh3Rm/idp2SDRP/Ni4I35tMwDHJ4eDhhRGlBsTRSBwgoV12zQtUNmVK3rpFwzbPFZ599Fiqbv2farGDtgTAQVYJM7rpnEK7dcGLhRsKJhRsJJ5aCGcmCqcCUpfjwPu1Zi0qiiWu/38f9+/eZ99fX17GysjKF5iyaCuxs14+WxKYCoVaG0HR+lY0k7So+iXqSXq+H119/HaIoUq+jo6OIV/t7h3l9u4YqcLVZZreBuivbgbSW/DnD5D2WVp9Ku4tA4uGGtZEWjZOkBsZYqEON1r27nAEVeJhyo9xcfM1mSL5zEnMXzarh8d0QcUsD9g7SZDQqtgrsy8NSa53vniQr9YBeU1qrRudHc1kIFZhi1OkEwMUgdyMJGoR9chwynFiKrgJThsndtQ7d+20BydkzbRNyq+aZKJrYbQJbG/Ef9MKowKYCYX8zZHyb+/ObpE+bREvgpaUlPHr0iLrMHQwGEQcTiFCJ4axu3BLZIPQl65lQgc8miXqSarWK5eVl9Pv90DUYDHD9+vWIVzsTx+E3bK5dMCVDk3cDbISo4naPkhhwp4J20EBEFWRzP1R3f3POf+sUSawCl8vlPNuRP3mqwClzrCwaBduW5xQRbiScWLiRcGLhRsKJJbGRPH78GJZlUa9oArI7lQVzEUh5XAv1WbaORvisllw/h6wkVoH/+usvLC8vh66lpaVINwKghLWtYGrxIP5lsk+zodavj/LM+y7qmtN1ETiJCIYYbbSV0ewOj0ppQGfG/7JSo7PaS9GYvC4JM/kcspPISPr9Pl555RWsrq6GrsuXL6Pf79Nf6O6M1ppNlGn7ETNgVi4C0VD+mZaGRZEA8w8YN2TImgbZ65wT5Ay4CIxIqlbTepJcPocp4I2vYMXdHB4ekr///psZq2EYBusOkd1YFUOuE0p4SwwGkeXwe1NjYiaKi7GIVpfJ+Eluuw3ZickZ/nQeTn924KI0ewJm9TnQ425yXt2IUF3Z3u+3wabwLgIh9wADct1JreEtV0VkEyLz+hwmoNjBWSUJnUl3uxnb8abSwElcvVFoakyIKovQdr0NvbGLtU7KBD7T+BwmIPeA8VgW1UUgMUm2AGbwOUxAop6kXC7jhx9+YN6/du1a9hacKxeBEiRWlzCTI2OykchIVlZW8O677+bdlvxo1UA7KaUeXHGJKm7vCxCCJ6XUNVidSQyEcVRL0nN+5oxAPOOIaZpYWVmJzqTIOdN8/vnn+PTTT31lXLvhxMKNhBMLNxJOLIU0kumrtvmoq7R2jsqoKcYp6vFEy+vZkDgj9I8//si8f+3aNayurk6pSXkEducZiJ4cU9kG2gS+FbbrMjBxXFGOJM4t/+abb+LFF1+k3jdNM8JI/DnXZSPai3w26b3nRddJ/Os1ktMeupia3JwLiYcbIbR5kIQ0AeM5qrYFUVdF1QCCu6g1wChwLwIUKmA8x8DuXALR2bRqAsO94AoqdRmGTxyMc8iaP8ULGM85vfcs1FXZIH5DHfVkXs83tyfrOg5Z09Rapk3xAsZnmd57CoHoPhGuoYNq/syejOJeUECKEzA+ZNqqbY7qaknqhHqayKGD+rdFJPUpCIlWN8vLy/j++++ZJ2exylMFjHuZpmpbGHV1PI/q+MpNKA0d9pQdhaZJIiOpVCqoVCoZH8Hao4hg7qptHjjzqIYgoOYrd/ZkitZaL1wF5vjgKjAnE9xIOLFwI+HEMgMjSegIzCksMwgYTxILPCZNEHSyuvTgbkfGd5efCdt2Xsk3YDxTLLBX24gOgqZun4dibMfB3eNziaPyrZpQhGHPR/FDSbB3bir0LXZWedHJN2A8aSxwRqg9CTVa3yHb8at+ozVQizYUU2Em1RNVC5X9xeu5cp6TmFB2KrglSdjsbSfcfvYKYHEKbLoUFCfHCKeg6KbLeBB9argNfQfuEa+eYW5kVCVsVPawu2C9SeFigdMpsAxJX6BMlM1dNKsatvYCxurG8Sbv5SJODbcPsFfdhAjA1rext+XkmSebGLWntFaNzpVSQIqzBM4Qujg2KAuaz08jEPBk62jUAEOVILW3sFeebLUVNWxVXYW7tLEFNF2DFMVxe65UFu5c+uIYSRo5PWRQQT8Nj0HZOhrlHm4PDackoWMAtcwzyISnhpckdEgb2Gb0bAtEYiP577//8mzHmCRyehqDKknoBHsWUc2YMir+1PBjt5ewdR2mu7Iy5GN4R5hq2gMY5kzigPGHDx8y72dXiIOkkdP9DtY+6hqsqUnvKU4NL21gCwewIaIkrWF3qPjKxshD3j7YA9aSZ6YuBN6MNoU4YZx6EniaLEnj7ErTrZsMS6tHZDmyiCYX+5RyWqaj4hnJwmMRrU43akOedpqs6XO+j6GfGSVInQ71jqiSwqeZoFGc1Q2nsHAj4cRSOFeB6avAtLrj9rBOAo8MBj9nJJqT/PHHH3jw4AHzbOCrV69GHJqUzlUgTYoo6sFFto7GbqAs6FXvBmmLOQW62HoD22iHtvpNZTFP1EpkJI8fP8Zbb70VGTBONRJTGYc7Npthb/cJMRVGPM48z3+3dexSDARwxMETRYctFjd8gka+AeOZXAVyUIGDZ+qVe7gd+XV20l+09tOPLebuHiobJXAVODHpXQXyUoH97zsezkoS5fxeVzHWjmsp5yAm9o+3sFHiKnAKUrgK5KkCOw9gZjsKJQfeqcBSJUhtDcfMVBkM3CwFXAXOg7xU4PEDqGfJWJrH2dFUnKFo2GuVJHSsLextZ/AmO48q8MyYtgo8gt6TlJvdwPsGeqGShE4asfD4BDbOoQq8srISGTBOO3k8GzmrwFNVh2mI2Kzu4xSAeIZU4MSuArM5PDpNUHXaZHlw/Vmb4fKkWQwSIG4CDd2GKNHaZ+Ogt4Vbi2UjBXQVOAOw1F6uAnNGsNRergJzzizcSDixFE4F5hSPGRhJWhV4SJRxRQWBByV9HjA+KYmMxLIsfPvtt7h79y71Ojo6or9wksOjzV00uy3QNbY0QeA8YHxSEh9AcOPGDVy4cIF63zQZf7moghiAclIBsAE1oZuArTdQ7t0GIbegNwQ0TlgKsondZhetuo5b4gYOGmUMN1Bp3gKnvS7Sp3H3+7eYigBBidhXiQkYP9OuAtlIowKPh4VttN1/gtMLtLEddhewdTQEJ2+9tbWHcuMAGx2KHuN5fx4wno3iqMCeYSHYa4yS6o621E0o5Saq7okXJanjGEpkSggeMJ6V4iyBU7kKuFveni69JHXYQwAPGJ+I4hhJSNkN+ogw8q9TVONttMf1eMD4xMz/hPFJsHU0toF2wJDa2B7PMXjA+MTM/4TxHDjtdYFpxbDzgPEiq8AW0eoyiRVNKQHm9cTR5TxgPAgPGJ8JPGCcEwsPGOecQ7iRcGIpsKvAtFRgBx4wnp0ZnDCe0VXAVYFlU4UYGsid/QcJzj9ud40Shed7Lx4wPgn5njCeMWA8LxV4JvCA8ZSkChjPUQXmAeMTUSBXgXxVYB4wnp3iuArkqQI7D+AB4xkpzhI4LxV4/AAeMJ6R4hhJFpKowCN4wHhWEp8w/ujRI2pg+GAwiDhhfD4wVWAeMJ6JRD1JpVLBxYsX0e/3Q9dgMMD169fzbiedkoROG9gO9A47FcZKyvVnTZKtMSviJrDjTETGw9vYA8oJGF+wfRKfCnx4eEi+++67XNTF88QiB4zfuXMnVObrSSqVCh48eDAvez0ziCorpKL4u63//PNPqMxnJMvLy/jtt99m1iBO8XjhhRdCZaE5yTvvvINerzeTBnGKxRdffIEPPvggVB4yknq9jq+//hqDwWAmDeMUg9PTU6ysrFA1OOrq5uOPP8ZHH32EJ0+e5N44zvy5f/8+vvnmG9y8eZN6XyCEHSvx1Vdf4eeff8bbb7+NV199FZcuXcqtoZzZcnp6iocPH+LevXu4efNm5DZGpJEMOTo6wtHRESzLmmpDOfNjfX0d6+vriRImJjISzvlmsbUbzkzgRsKJ5f9gTU3uHilaeQAAAABJRU5ErkJggg==;" vertex="1" parent="1">
          <mxGeometry x="1560" y="500" width="137" height="149" as="geometry" />
        </mxCell>
        <mxCell id="t5ip_q_PDymZQ2jQOUWd-59" value="" style="edgeStyle=entityRelationEdgeStyle;fontSize=12;html=1;endArrow=ERoneToMany;rounded=0;exitX=0;exitY=0.5;exitDx=0;exitDy=0;entryX=1;entryY=0.5;entryDx=0;entryDy=0;" edge="1" parent="1" source="t5ip_q_PDymZQ2jQOUWd-58" target="t5ip_q_PDymZQ2jQOUWd-56">
          <mxGeometry width="100" height="100" relative="1" as="geometry">
            <mxPoint x="1430" y="780" as="sourcePoint" />
            <mxPoint x="1530" y="680" as="targetPoint" />
          </mxGeometry>
        </mxCell>
        <mxCell id="t5ip_q_PDymZQ2jQOUWd-60" value="" style="endArrow=classic;html=1;rounded=0;entryX=1;entryY=0.5;entryDx=0;entryDy=0;exitX=0;exitY=0.5;exitDx=0;exitDy=0;" edge="1" parent="1" source="t5ip_q_PDymZQ2jQOUWd-56" target="t5ip_q_PDymZQ2jQOUWd-52">
          <mxGeometry width="50" height="50" relative="1" as="geometry">
            <mxPoint x="1380" y="680" as="sourcePoint" />
            <mxPoint x="1510" y="700" as="targetPoint" />
          </mxGeometry>
        </mxCell>
      </root>
    </mxGraphModel>
  </diagram>
</mxfile>
